<svg width="100%" height="100%" viewBox="0 0 16 16" fill="none" xmlns="http://www.w3.org/2000/svg">
<path fill-rule="evenodd" clip-rule="evenodd" d="M2.86199 5.52898C2.98701 5.40399 3.15655 5.33377 3.33332 5.33377C3.5101 5.33377 3.67964 5.40399 3.80466 5.52898L7.99999 9.72452L12.1953 5.52898C12.2568 5.4653 12.3304 5.41451 12.4117 5.37957C12.4931 5.34463 12.5805 5.32623 12.6691 5.32546C12.7576 5.3247 12.8454 5.34156 12.9273 5.37509C13.0092 5.40861 13.0837 5.45811 13.1463 5.52071C13.2088 5.58331 13.2583 5.65775 13.2919 5.73968C13.3254 5.82162 13.3423 5.90941 13.3415 5.99793C13.3407 6.08646 13.3223 6.17394 13.2874 6.25528C13.2524 6.33662 13.2017 6.41019 13.138 6.47169L8.47132 11.1386C8.3463 11.2636 8.17676 11.3338 7.99999 11.3338C7.82321 11.3338 7.65367 11.2636 7.52866 11.1386L2.86199 6.47169C2.73701 6.34666 2.6668 6.17712 2.6668 6.00033C2.6668 5.82355 2.73701 5.654 2.86199 5.52898Z" fill="white"/>
</svg>
