<svg width="100%" height="100%" viewBox="0 0 16 16" fill="none" xmlns="http://www.w3.org/2000/svg">
<path fill-rule="evenodd" clip-rule="evenodd" d="M8 2.66675C8.17681 2.66675 8.34638 2.73699 8.4714 2.86202C8.59643 2.98705 8.66666 3.15663 8.66666 3.33345V7.33364H12.6667C12.8435 7.33364 13.013 7.40388 13.1381 7.52891C13.2631 7.65394 13.3333 7.82352 13.3333 8.00034C13.3333 8.17716 13.2631 8.34674 13.1381 8.47177C13.013 8.5968 12.8435 8.66704 12.6667 8.66704H8.66666V12.6672C8.66666 12.8441 8.59643 13.0136 8.4714 13.1387C8.34638 13.2637 8.17681 13.3339 8 13.3339C7.82319 13.3339 7.65362 13.2637 7.52859 13.1387C7.40357 13.0136 7.33333 12.8441 7.33333 12.6672V8.66704H3.33333C3.15652 8.66704 2.98695 8.5968 2.86193 8.47177C2.7369 8.34674 2.66666 8.17716 2.66666 8.00034C2.66666 7.82352 2.7369 7.65394 2.86193 7.52891C2.98695 7.40388 3.15652 7.33364 3.33333 7.33364H7.33333V3.33345C7.33333 3.15663 7.40357 2.98705 7.52859 2.86202C7.65362 2.73699 7.82319 2.66675 8 2.66675Z" fill="white"/>
</svg>
